<svg width="42" height="42" viewBox="0 0 42 42" fill="none" xmlns="http://www.w3.org/2000/svg">
<rect width="42" height="42" rx="21" fill="white"/>
<mask id="mask0_213_1833" style="mask-type:luminance" maskUnits="userSpaceOnUse" x="4" y="4" width="34" height="34">
<path d="M21 38C30.3888 38 38 30.3888 38 21C38 11.6112 30.3888 4 21 4C11.6112 4 4 11.6112 4 21C4 30.3888 11.6112 38 21 38Z" fill="white"/>
</mask>
<g mask="url(#mask0_213_1833)">
<path d="M4 4H38V38H4V4Z" fill="#6DA544"/>
<path d="M21 10.6539L35.0449 21L21 31.3461L6.95508 21L21 10.6539Z" fill="#FFDA44"/>
<path d="M15.568 18.6758C15.2376 19.4357 15.0745 20.2578 15.0899 21.0864L25.8477 24.3934C26.3216 23.7164 26.6475 22.947 26.8039 22.1356C24.1078 17.7992 18.8551 16.8031 15.5746 18.6824L15.568 18.6758Z" fill="#EEEEEE"/>
<path d="M20.9801 15.0899C20.0089 15.0923 19.0532 15.3341 18.1977 15.7938C17.0201 16.4291 16.093 17.4452 15.568 18.6758C17.58 18.2486 19.6678 18.3428 21.6332 18.9495C23.5985 19.5562 25.3762 20.6552 26.7973 22.1422C27.0613 20.7978 26.85 19.4035 26.1996 18.1977C25.6923 17.2558 24.9389 16.4692 24.0197 15.9219C23.1005 15.3745 22.0499 15.087 20.9801 15.0899ZM18.0781 20.6348C17.0648 20.6314 16.0569 20.7837 15.0898 21.0863C15.101 22.0345 15.3402 22.9661 15.7871 23.8024C16.1549 24.4863 16.6538 25.091 17.2554 25.582C17.857 26.073 18.5495 26.4407 19.2933 26.6639C20.037 26.8871 20.8175 26.9616 21.59 26.8831C22.3626 26.8046 23.1121 26.5746 23.7957 26.2063C24.6073 25.7692 25.3055 25.1484 25.8344 24.3934C24.9023 23.2296 23.7224 22.2884 22.3807 21.6382C21.0389 20.988 19.5691 20.6452 18.0781 20.6348Z" fill="#0052B4"/>
</g>
</svg>
