<svg width="80" height="90" viewBox="0 0 80 90" fill="none" xmlns="http://www.w3.org/2000/svg">
<path d="M17.5961 73.0104C18.0567 73.308 18.5173 73.6056 18.984 73.866C19.6023 74.2194 20.2453 74.5417 20.9068 74.8456C21.0304 74.9014 21.1572 74.9572 21.2839 75.013C23.8434 76.1414 26.6533 76.9412 29.7198 77.3132V73.6986C29.1881 73.6397 28.6347 73.6056 28.1185 73.525V37.4596H31.4879C31.525 37.4596 31.5652 37.4627 31.6023 37.4627C33.4292 37.4627 35.4354 37.5681 37.4941 37.8409C46.2607 38.9941 55.8898 43.1946 55.8898 55.5667C55.8898 65.1488 50.0629 72.5733 39.0521 73.8319V77.4992C53.7043 76.2778 63.3364 68.0008 63.3364 56.0658C63.3364 45.811 56.7831 37.6456 43.4106 35.6306C48.1463 33.8605 51.3241 28.9842 51.3241 22.7098C51.3241 15.0683 46.6007 9.79825 39.0521 7.65306V12.1295C42.1772 14.191 43.8774 17.6754 43.8774 22.9082C43.8774 29.7127 40.9624 33.473 37.2592 35.24C35.4415 36.108 33.4508 36.5296 31.491 36.5234C31.4817 36.5234 31.4725 36.5265 31.4663 36.5265H28.1185V9.77966C28.1185 9.77966 29.6085 9.79515 29.7198 9.79825V6.57425L14.0258 6.58045L14.0381 7.56936H15.2808C18.5389 7.56936 21.5065 10.0339 21.6517 13.7663V71.6061C19.2623 70.9303 17.1881 69.9259 15.2221 68.5588C13.695 67.4986 12.1463 66.1842 10.7275 64.6497C11.7352 64.7178 12.3689 63.6267 12.3967 62.4146C12.4245 61.2149 11.9701 59.0883 11.8743 59.0883C11.5065 59.0883 9.55592 61.0351 9.27771 61.9248C9.18497 62.2255 9.1757 62.5169 9.19425 62.799C8.63474 62.0426 8.1247 61.2304 7.66411 60.3717C7.77848 60.4647 7.88358 60.5732 8.01341 60.6228C8.66256 60.8739 9.65174 60.1609 9.85885 59.0046C10.0629 57.8638 9.96395 55.607 9.87122 55.5915C9.50955 55.5357 7.58374 56.9586 7.17879 57.7677C6.95314 58.2172 6.9315 58.6605 6.98714 59.079C6.474 57.9041 6.1216 56.6083 5.86195 55.2505C5.9485 55.6287 6.11542 55.9666 6.37817 56.1495C6.88204 56.506 7.89286 56.0565 8.32872 55.0552C8.7553 54.0663 9.17261 52.0079 9.09533 51.9769C8.79548 51.856 6.82021 52.7581 6.29162 53.406C5.91759 53.8648 5.78467 54.3918 5.80012 54.8692C5.62083 53.8152 5.53737 52.7023 5.54974 51.5336C5.65484 51.7041 5.80012 51.8529 5.99178 51.9614C6.56365 52.2838 7.58683 51.9025 7.94232 50.8671C8.35035 49.6736 9.16952 48.6227 9.09224 48.5917C8.79239 48.4708 6.45236 48.9202 5.89595 49.5465C5.7383 49.7232 5.63938 49.9123 5.54974 50.1014C5.54974 50.0952 5.54974 50.0859 5.54974 50.0797C5.60847 49.3388 5.71975 48.4925 5.88049 47.5935C5.95777 47.7578 6.06596 47.9128 6.22361 48.0399C6.7182 48.4305 7.72593 48.2569 8.19579 47.3765C8.73675 46.3597 9.64556 45.5444 9.57756 45.5041C9.31171 45.3429 7.05824 45.3522 6.45545 45.8265C6.35963 45.9009 6.31017 45.9908 6.23289 46.0745C6.39363 45.3956 6.56983 44.726 6.79858 44.0285C6.83567 44.2021 6.91913 44.3695 7.04896 44.5152C7.42609 44.9399 8.36581 44.9275 8.93459 44.1959C9.59301 43.3496 10.5482 42.7389 10.4956 42.6924C10.2854 42.5064 8.25453 42.1964 7.63011 42.5405C7.46936 42.6304 7.34881 42.7451 7.23134 42.8598C7.52191 42.1034 7.85885 41.3842 8.23907 40.6619C8.18034 40.9037 8.18652 41.1579 8.33181 41.3904C8.60074 41.8244 9.42918 41.9577 10.0443 41.3997C10.7553 40.7549 11.6919 40.3643 11.6517 40.3147C11.4941 40.1194 9.75375 39.5304 9.15097 39.7381C8.90677 39.8218 8.7182 39.952 8.56055 40.1008C8.80785 39.673 9.01187 39.2142 9.29935 38.8112C9.30244 38.805 9.30553 38.7864 9.31171 38.7771C9.76921 38.9569 10.6842 38.5694 10.9871 37.7603C11.253 37.0504 12.0103 35.5376 11.9423 35.5283C11.6332 35.4849 10.2205 36.2227 9.67957 36.728C9.02733 37.3356 8.80476 37.9525 8.96241 38.402C7.87122 39.8962 7.00259 41.3501 6.32871 42.8815C6.44618 42.401 6.40599 41.8275 6.1587 41.3501C5.76612 40.5968 4.81712 39.4529 4.74293 39.4777C4.44927 39.58 4.14943 41.3067 4.16797 42.1375C4.1927 43.3961 4.81403 44.0161 5.55283 43.8425C5.92686 43.7526 6.18961 43.3868 6.31326 42.928C5.82176 44.0564 5.43227 45.2406 5.1417 46.524C5.19425 45.9908 5.06751 45.3863 4.73057 44.9182C4.1927 44.1711 2.98405 43.0923 2.90677 43.1326C2.60074 43.2907 2.52964 45.2003 2.66875 46.0931C2.87895 47.4478 3.65174 48.012 4.43072 47.702C4.81403 47.5501 5.03969 47.1254 5.11388 46.6325C4.84185 47.8601 4.65329 49.1838 4.5451 50.6563C4.50182 50.0921 4.26998 49.4814 3.84649 49.035C3.16025 48.3096 1.64556 47.3982 1.57137 47.4509C1.28389 47.6555 1.67956 49.7821 1.92377 50.5323C2.38436 51.9366 3.27462 52.445 4.02269 52.0203C4.3349 51.8436 4.47091 51.4592 4.5111 51.0252C4.43382 52.259 4.51419 53.4742 4.71511 54.6615C4.53273 54.2585 4.2978 53.8834 3.94541 53.6633C2.88513 52.9999 0.891311 52.2435 0.841852 52.3086C0.65638 52.5752 1.47555 54.5995 1.89286 55.4644C2.72439 57.1973 4.00414 57.1508 4.67184 56.6982C4.89131 56.5494 4.9655 56.2146 4.97477 55.8395C5.23752 56.9462 5.58683 58.0157 6.01032 59.0418C5.86195 58.8992 5.72902 58.738 5.54664 58.6388C4.38436 58.0002 1.82794 57.7119 1.78466 57.7956C1.61465 58.1211 3.20352 60.4337 3.9485 61.1343C5.08297 62.2038 6.16488 62.2286 6.76766 61.5497C6.86967 61.435 6.90986 61.2428 6.91913 61.032C7.457 62.0829 8.04433 63.0718 8.64402 63.9801C8.09378 63.6608 7.37354 63.4841 6.67184 63.4562C5.25607 63.4004 3.01187 64.2962 3.02423 64.4079C3.06442 64.8419 5.56519 66.4508 6.62547 66.6895C8.23907 67.049 9.61774 66.5686 9.59919 65.3813C9.59919 65.3658 9.58683 65.3565 9.58683 65.341C11.695 68.2301 13.6548 70.0375 13.6548 70.0375C14.7646 71.0078 15.865 71.8292 16.9686 72.5826C16.9624 72.5888 16.9593 72.595 16.9531 72.6012C17.1541 72.7593 17.389 72.8708 17.5961 73.0104Z" fill="#52736B"/>
<path d="M27.865 0.857855C30.236 0.857855 32.1618 2.76435 32.2051 5.12965V34.3937C33.1602 34.3069 35.6394 33.7582 36.6069 33.2126V11.9001H36.6007V5.52645H36.6069V5.12965C36.6533 2.76435 38.576 0.857855 40.947 0.857855H41.8063L41.8156 0.178955H26.9964L27.0088 0.857855H27.865Z" fill="#52736B"/>
<path d="M7.03351 40.634C7.74139 40.5906 8.24525 39.4498 7.95468 38.5322C7.72593 37.8068 7.06133 36.6536 6.99332 36.6629C6.7213 36.7063 6.18961 38.185 6.07833 38.9166C5.90213 40.0326 6.35654 40.6743 7.03351 40.634Z" fill="#52736B"/>
<path d="M73.8805 51.7351C74.5544 51.7971 75.0304 51.1709 74.8913 50.0518C74.8017 49.314 74.3164 47.8229 74.0443 47.7702C73.9763 47.7578 73.2777 48.8893 73.0242 49.6085C72.7089 50.5137 73.1726 51.67 73.8805 51.7351Z" fill="#52736B"/>
<path d="M73.491 72.6632C74.0752 73.3607 75.1572 73.37 76.3225 72.3377C77.0891 71.6588 78.7491 69.3989 78.5884 69.0672C78.5482 68.9835 75.9856 69.1911 74.8017 69.7925C74.6131 69.8886 74.4709 70.0468 74.3164 70.1863C74.7708 69.1757 75.1633 68.1248 75.4601 67.0336C75.4601 67.3994 75.525 67.7249 75.7352 67.8799C76.3875 68.3541 77.6672 68.4409 78.5513 66.7328C78.9933 65.8803 79.8774 63.884 79.7012 63.6112C79.6579 63.543 77.6363 64.2343 76.5575 64.8667C76.1587 65.0992 75.8929 65.5208 75.7012 65.9703C75.9547 64.7489 76.1123 63.4965 76.0721 62.21C76.0969 62.644 76.2205 63.0345 76.5296 63.2206C77.2654 63.667 78.168 63.1896 78.6749 61.8008C78.9439 61.0568 79.4044 58.9457 79.1262 58.7318C79.0551 58.676 77.5126 59.5378 76.8017 60.2415C76.3658 60.6754 76.1154 61.28 76.0536 61.8411C75.9918 60.3686 75.8434 59.0387 75.6116 57.8049C75.6734 58.3008 75.8836 58.7287 76.2607 58.893C77.0304 59.2278 77.8187 58.6853 78.0721 57.3399C78.2391 56.4533 78.2267 54.5406 77.9269 54.3732C77.8496 54.3298 76.61 55.3683 76.0474 56.0999C75.6981 56.5556 75.5528 57.157 75.5868 57.6902C75.3364 56.4006 74.984 55.204 74.5266 54.0601C74.6378 54.5189 74.8882 54.894 75.2561 54.9963C75.9856 55.1947 76.6286 54.5964 76.6935 53.3378C76.7337 52.5101 76.4895 50.7741 76.202 50.6625C76.1278 50.6346 75.1417 51.7475 74.7275 52.4884C74.4647 52.9565 74.4091 53.53 74.508 54.0105C73.8836 52.4605 73.0582 50.9787 72.0165 49.4504C72.1896 49.004 71.9825 48.3809 71.3519 47.7547C70.8264 47.2339 69.4385 46.4496 69.1293 46.4837C69.0582 46.4899 69.7692 48.0244 70.0134 48.7436C70.2916 49.5651 71.1943 49.9774 71.6579 49.8131C71.661 49.8193 71.6641 49.841 71.6703 49.8472C71.9454 50.2564 72.134 50.7214 72.3689 51.1585C72.2174 51.0035 72.032 50.8671 71.7908 50.7741C71.1942 50.5478 69.4385 51.081 69.2715 51.2732C69.2313 51.3228 70.1525 51.7413 70.8419 52.4078C71.4385 52.9844 72.2731 52.879 72.5544 52.4512C72.7058 52.2218 72.7213 51.9706 72.6687 51.7257C73.0273 52.4574 73.3426 53.1889 73.6085 53.9547C73.4941 53.8368 73.3797 53.716 73.2221 53.623C72.61 53.2603 70.5698 53.5083 70.3534 53.685C70.2978 53.7315 71.2313 54.3701 71.865 55.2381C72.4122 55.9883 73.3488 56.0317 73.7414 55.6163C73.8774 55.4737 73.964 55.3093 74.0072 55.1357C74.2113 55.8425 74.3689 56.5153 74.508 57.2004C74.4338 57.1167 74.3874 57.0237 74.2947 56.9462C73.7074 56.4533 71.4539 56.3696 71.185 56.5246C71.117 56.5649 71.998 57.4081 72.508 58.4404C72.95 59.3332 73.9516 59.5409 74.4585 59.1658C74.6224 59.0449 74.7337 58.893 74.8171 58.7287C74.95 59.6308 75.0335 60.4802 75.0706 61.2242C75.0706 61.2335 75.0706 61.2397 75.0706 61.249C74.9871 61.0568 74.8944 60.8646 74.7429 60.6817C74.2082 60.04 71.8805 59.5161 71.5776 59.6277C71.5003 59.6556 72.2854 60.7313 72.6564 61.9372C72.9779 62.9819 73.9887 63.3941 74.5698 63.0904C74.7831 62.9788 74.9408 62.8176 75.0551 62.6285C75.0273 64.0452 74.8635 65.3782 74.5667 66.6182L74.5266 66.6027C74.7677 66.0137 74.7522 65.2108 74.2267 64.5226C73.7197 63.8592 71.7723 62.8951 71.4694 63.0067C71.3921 63.0346 71.7414 65.1054 72.1402 66.1067C72.542 67.1204 73.5405 67.6009 74.0536 67.2598C74.1649 67.1854 74.2453 67.0615 74.3318 66.9468C74.0041 67.6908 73.6517 68.4317 73.2777 69.1695C73.2468 69.061 73.253 68.9586 73.2035 68.8502C72.8233 68.0318 70.9439 66.5469 70.5791 66.5903C70.4864 66.6027 70.3164 68.8564 70.4833 70.0003C70.6224 70.9489 71.2901 71.5875 71.8898 71.6743C71.5961 72.1672 71.3055 72.66 70.9871 73.1405C70.9748 73.0723 70.9933 73.0072 70.9748 72.936C70.7244 72.0369 68.8357 70.0312 68.4678 70.0189C68.3751 70.0158 67.8527 72.1269 67.8434 73.3266C67.8341 74.4488 68.3627 75.4408 69.2344 75.5617C63.2252 83.2496 53.831 88.5538 39.8712 85.0663C36.5977 84.2479 36.6193 83.0482 36.6131 81.1696V40.0357C36.0814 39.8745 33.4106 39.549 32.2113 39.6916V79.604C32.1525 82.0406 30.1865 83.1101 27.8836 83.1101H27.0057L26.9933 83.789C30.8759 83.8572 34.8975 85.1562 38.9346 87.1185C51.6363 93.2906 63.5003 88.4483 70.7275 77.0962C71.1355 77.7719 72.2174 78.0417 73.4725 77.803C74.5389 77.6015 77.0922 76.0701 77.1448 75.6361C77.1572 75.5245 74.9439 74.5603 73.5281 74.5696C73.015 74.5727 72.5142 74.6843 72.0505 74.8456C72.5142 73.993 72.9562 73.1096 73.3704 72.1951C73.3828 72.378 73.4014 72.5578 73.491 72.6632Z" fill="#52736B"/>
</svg>
