<svg width="53" height="59" viewBox="0 0 53 59" fill="none" xmlns="http://www.w3.org/2000/svg">
<path d="M11.5585 47.9356C11.8621 48.1315 12.1656 48.3273 12.4732 48.4987C12.8806 48.7313 13.3043 48.9435 13.7402 49.1435C13.8217 49.1802 13.9052 49.2169 13.9887 49.2536C15.6754 49.9963 17.5271 50.5227 19.5478 50.7676V48.3885C19.1975 48.3498 18.8328 48.3273 18.4927 48.2743V24.537H20.713C20.7375 24.537 20.764 24.5391 20.7884 24.5391C21.9923 24.5391 23.3144 24.6085 24.671 24.788C30.4481 25.547 36.7935 28.3117 36.7935 36.4546C36.7935 42.7613 32.9537 47.6479 25.6977 48.4763V50.89C35.3533 50.0861 41.7008 44.6384 41.7008 36.7831C41.7008 30.0337 37.3822 24.6595 28.5699 23.3333C31.6907 22.1682 33.7848 18.9588 33.7848 14.8291C33.7848 9.79972 30.6722 6.33115 25.6977 4.91924V7.86548C27.7572 9.22231 28.8775 11.5156 28.8775 14.9597C28.8775 19.4383 26.9566 21.9132 24.5162 23.0762C23.3184 23.6475 22.0066 23.9249 20.7151 23.9209C20.709 23.9209 20.7029 23.9229 20.6988 23.9229H18.4927V6.31891C18.4927 6.31891 19.4745 6.32911 19.5478 6.33115V4.20921L9.20575 4.21329L9.2139 4.86415H10.0328C12.1798 4.86415 14.1354 6.48622 14.2311 8.94278V47.0113C12.6565 46.5665 11.2897 45.9055 9.99409 45.0057C8.98779 44.3079 7.96722 43.4428 7.03222 42.4328C7.6963 42.4777 8.11389 41.7595 8.13222 40.9617C8.15056 40.1721 7.85111 38.7724 7.78796 38.7724C7.54555 38.7724 6.26018 40.0538 6.07684 40.6394C6.01573 40.8373 6.00962 41.0291 6.02184 41.2147C5.65314 40.7169 5.31702 40.1823 5.0135 39.6171C5.08887 39.6784 5.15813 39.7498 5.24369 39.7824C5.67147 39.9477 6.32332 39.4784 6.45981 38.7174C6.59425 37.9665 6.52907 36.4812 6.46796 36.471C6.22962 36.4342 4.96054 37.3707 4.69369 37.9033C4.54498 38.1991 4.53072 38.4909 4.56739 38.7663C4.22924 37.993 3.99701 37.1402 3.8259 36.2465C3.88294 36.4954 3.99294 36.7178 4.16609 36.8382C4.49813 37.0729 5.16424 36.777 5.45147 36.118C5.73258 35.4671 6.00758 34.1123 5.95666 34.0919C5.75906 34.0124 4.45739 34.6061 4.10905 35.0325C3.86257 35.3345 3.77498 35.6813 3.78516 35.9956C3.66701 35.3018 3.61201 34.5694 3.62016 33.8002C3.68942 33.9124 3.78516 34.0103 3.91146 34.0817C4.28831 34.2939 4.96258 34.043 5.19684 33.3615C5.46573 32.576 6.00555 31.8843 5.95462 31.8639C5.75703 31.7843 4.21498 32.0802 3.84831 32.4923C3.74442 32.6086 3.67923 32.7331 3.62016 32.8575C3.62016 32.8534 3.62016 32.8473 3.62016 32.8432C3.65886 32.3556 3.7322 31.7986 3.83812 31.2069C3.88905 31.315 3.96035 31.417 4.06424 31.5007C4.39016 31.7578 5.05424 31.6435 5.36387 31.0641C5.72036 30.3948 6.31925 29.8582 6.27444 29.8317C6.09925 29.7256 4.61424 29.7317 4.21702 30.0439C4.15387 30.0929 4.12127 30.152 4.07035 30.2071C4.17627 29.7603 4.29239 29.3196 4.44313 28.8605C4.46757 28.9748 4.52257 29.085 4.60813 29.1808C4.85665 29.4604 5.47591 29.4522 5.85073 28.9707C6.28462 28.4137 6.91407 28.0117 6.87944 27.9811C6.74092 27.8587 5.40258 27.6547 4.99109 27.8812C4.88517 27.9403 4.80572 28.0158 4.72831 28.0913C4.9198 27.5935 5.14184 27.1201 5.39239 26.6447C5.35369 26.8039 5.35776 26.9712 5.4535 27.1242C5.63073 27.4098 6.17666 27.4976 6.58203 27.1303C7.05055 26.7059 7.66778 26.4488 7.64129 26.4162C7.53741 26.2877 6.39055 25.9 5.99332 26.0367C5.8324 26.0918 5.70814 26.1775 5.60425 26.2754C5.76721 25.9938 5.90166 25.6919 6.0911 25.4266C6.09314 25.4226 6.09517 25.4103 6.09925 25.4042C6.40073 25.5225 7.0037 25.2675 7.20333 24.735C7.37852 24.2677 7.87759 23.272 7.83278 23.2659C7.62907 23.2374 6.69814 23.723 6.34166 24.0555C5.91184 24.4554 5.76517 24.8615 5.86906 25.1573C5.14998 26.1407 4.57757 27.0977 4.1335 28.1056C4.2109 27.7893 4.18442 27.4119 4.02146 27.0977C3.76275 26.6019 3.13738 25.849 3.08849 25.8653C2.89497 25.9326 2.69738 27.0691 2.7096 27.6159C2.7259 28.4443 3.13534 28.8524 3.6222 28.7381C3.86868 28.6789 4.04183 28.4382 4.12331 28.1362C3.79942 28.8789 3.54275 29.6583 3.35127 30.503C3.3859 30.152 3.30238 29.7542 3.08034 29.4461C2.7259 28.9544 1.92941 28.2443 1.87848 28.2709C1.67681 28.3749 1.62996 29.6318 1.72163 30.2194C1.86015 31.111 2.36941 31.4823 2.88275 31.2783C3.13534 31.1783 3.28405 30.8988 3.33294 30.5744C3.15368 31.3824 3.02942 32.2536 2.95812 33.2227C2.9296 32.8514 2.77682 32.4495 2.49775 32.1557C2.04552 31.6782 1.04737 31.0784 0.998477 31.113C0.809032 31.2477 1.06977 32.6474 1.2307 33.1411C1.53422 34.0654 2.12089 34.4 2.61386 34.1205C2.8196 34.0042 2.90923 33.7512 2.93571 33.4655C2.88479 34.2776 2.93775 35.0774 3.07016 35.8589C2.94997 35.5936 2.79516 35.3467 2.56293 35.2019C1.86422 34.7652 0.550326 34.2674 0.517734 34.3102C0.395511 34.4857 0.935329 35.818 1.21033 36.3873C1.7583 37.5278 2.60164 37.4972 3.04164 37.1994C3.18627 37.1014 3.23516 36.8811 3.24127 36.6342C3.41442 37.3626 3.6446 38.0665 3.92368 38.7418C3.8259 38.648 3.73831 38.5419 3.61812 38.4766C2.85219 38.0563 1.16755 37.8665 1.13903 37.9216C1.027 38.1359 2.07404 39.658 2.56497 40.1191C3.31257 40.823 4.02553 40.8393 4.42276 40.3925C4.48998 40.317 4.51646 40.1905 4.52257 40.0517C4.87702 40.7434 5.26406 41.3943 5.65925 41.9921C5.29665 41.7819 4.82202 41.6656 4.35961 41.6473C3.42664 41.6106 1.94774 42.2002 1.95589 42.2737C1.98237 42.5593 3.63035 43.6182 4.32905 43.7753C5.39239 44.012 6.30092 43.6958 6.28869 42.9143C6.28869 42.9041 6.28055 42.898 6.28055 42.8878C7.66981 44.7894 8.9613 45.9789 8.9613 45.9789C9.6926 46.6175 10.4178 47.1582 11.145 47.654C11.1409 47.6581 11.1389 47.6622 11.1348 47.6663C11.2672 47.7703 11.4221 47.8438 11.5585 47.9356Z" fill="#9B4522"/>
<path d="M18.3256 0.446833C19.888 0.446833 21.1571 1.70164 21.1856 3.25841V22.5192C21.8151 22.462 23.4488 22.1009 24.0864 21.7418V7.7145H24.0823V3.51957H24.0864V3.25841C24.117 1.70164 25.384 0.446833 26.9464 0.446833H27.5127L27.5188 0H17.7532L17.7614 0.446833H18.3256Z" fill="#9B4522"/>
<path d="M4.59794 26.6263C5.06443 26.5978 5.39647 25.8469 5.20498 25.243C5.05424 24.7656 4.61628 24.0066 4.57146 24.0127C4.3922 24.0412 4.04183 25.0145 3.9685 25.496C3.85238 26.2305 4.15183 26.6529 4.59794 26.6263Z" fill="#9B4522"/>
<path d="M48.6491 33.9328C49.0932 33.9736 49.4069 33.5614 49.3153 32.8249C49.2562 32.3393 48.9364 31.3579 48.7571 31.3232C48.7123 31.315 48.2519 32.0598 48.0849 32.5331C47.8771 33.1289 48.1827 33.8899 48.6491 33.9328Z" fill="#9B4522"/>
<path d="M48.3925 47.7071C48.7775 48.1661 49.4904 48.1723 50.2584 47.4928C50.7636 47.046 51.8575 45.5586 51.7516 45.3403C51.7251 45.2852 50.0364 45.4219 49.2562 45.8177C49.1319 45.881 49.0382 45.985 48.9364 46.0768C49.2358 45.4117 49.4945 44.72 49.6901 44.0018C49.6901 44.2426 49.7328 44.4568 49.8714 44.5588C50.3012 44.871 51.1445 44.9281 51.7271 43.8039C52.0184 43.2428 52.601 41.9288 52.4849 41.7493C52.4564 41.7044 51.1241 42.1594 50.4132 42.5756C50.1504 42.7287 49.9753 43.0061 49.849 43.302C50.016 42.4981 50.1199 41.6738 50.0934 40.8271C50.1097 41.1127 50.1912 41.3698 50.3949 41.4922C50.8797 41.786 51.4745 41.4718 51.8086 40.5577C51.9858 40.0681 52.2893 38.6786 52.106 38.5378C52.0592 38.5011 51.0427 39.0683 50.5741 39.5315C50.2869 39.8171 50.1219 40.215 50.0812 40.5843C50.0404 39.6151 49.9427 38.7398 49.7899 37.9278C49.8306 38.2542 49.9691 38.5358 50.2177 38.6439C50.7249 38.8643 51.2443 38.5072 51.4114 37.6217C51.5214 37.0382 51.5132 35.7793 51.3156 35.6691C51.2647 35.6405 50.4478 36.3241 50.0771 36.8056C49.8469 37.1055 49.7512 37.5013 49.7736 37.8523C49.6086 37.0035 49.3764 36.2159 49.0749 35.463C49.1482 35.765 49.3132 36.0119 49.5556 36.0792C50.0364 36.2098 50.4601 35.816 50.5028 34.9876C50.5293 34.4429 50.3684 33.3003 50.179 33.2268C50.1301 33.2085 49.4803 33.9409 49.2073 34.4286C49.0341 34.7367 48.9975 35.1141 49.0627 35.4304C48.6512 34.4102 48.1073 33.4349 47.4208 32.4291C47.5349 32.1352 47.3984 31.7251 46.9828 31.313C46.6365 30.9702 45.7219 30.454 45.5182 30.4765C45.4713 30.4805 45.9399 31.4905 46.1008 31.9639C46.2841 32.5045 46.8789 32.7759 47.1845 32.6678C47.1865 32.6719 47.1886 32.6861 47.1926 32.6902C47.3739 32.9595 47.4982 33.2656 47.653 33.5533C47.5532 33.4513 47.431 33.3615 47.2721 33.3003C46.8789 33.1513 45.7219 33.5023 45.6119 33.6288C45.5854 33.6614 46.1925 33.9369 46.6467 34.3755C47.0399 34.755 47.5899 34.6857 47.7752 34.4041C47.8751 34.2531 47.8852 34.0878 47.8506 33.9267C48.0869 34.4082 48.2947 34.8897 48.4699 35.3937C48.3945 35.3161 48.3191 35.2366 48.2152 35.1753C47.8119 34.9366 46.4675 35.0999 46.3249 35.2162C46.2882 35.2468 46.9034 35.6671 47.321 36.2384C47.6815 36.7321 48.2988 36.7607 48.5575 36.4873C48.6471 36.3934 48.7041 36.2853 48.7327 36.171C48.8671 36.6362 48.971 37.079 49.0627 37.5299C49.0138 37.4748 48.9832 37.4136 48.9221 37.3626C48.5351 37.0382 47.05 36.9831 46.8728 37.0851C46.828 37.1116 47.4086 37.6666 47.7447 38.346C48.036 38.9336 48.696 39.0703 49.0301 38.8235C49.138 38.7439 49.2114 38.6439 49.2664 38.5358C49.354 39.1295 49.409 39.6886 49.4334 40.1782C49.4334 40.1844 49.4334 40.1884 49.4334 40.1946C49.3784 40.0681 49.3173 39.9416 49.2175 39.8212C48.8651 39.3988 47.3312 39.054 47.1315 39.1275C47.0806 39.1458 47.598 39.8538 47.8425 40.6475C48.0543 41.3351 48.7204 41.6065 49.1034 41.4065C49.244 41.3331 49.3478 41.227 49.4232 41.1025C49.4049 42.0349 49.2969 42.9123 49.1014 43.7284L49.0749 43.7182C49.2338 43.3306 49.2236 42.8021 48.8773 42.3492C48.5432 41.9125 47.2599 41.278 47.0602 41.3514C47.0093 41.3698 47.2395 42.7327 47.5023 43.3918C47.7671 44.059 48.4251 44.3752 48.7632 44.1508C48.8365 44.1018 48.8895 44.0202 48.9465 43.9447C48.7306 44.4344 48.4984 44.922 48.2519 45.4076C48.2315 45.3362 48.2356 45.2689 48.203 45.1975C47.9525 44.6588 46.7139 43.6815 46.4736 43.7101C46.4125 43.7182 46.3004 45.2015 46.4104 45.9544C46.5021 46.5788 46.9421 46.9991 47.3373 47.0562C47.1438 47.3806 46.9523 47.705 46.7425 48.0213C46.7343 47.9764 46.7465 47.9335 46.7343 47.8866C46.5693 47.2949 45.3247 45.9748 45.0823 45.9667C45.0211 45.9646 44.6769 47.3541 44.6708 48.1437C44.6647 48.8823 45.013 49.5352 45.5875 49.6148C41.6274 54.6748 35.4368 58.1658 26.2375 55.8704C24.0803 55.3318 24.0945 54.5422 24.0905 53.3057V26.2326C23.7401 26.1265 21.9801 25.9122 21.1897 26.0061V52.2754C21.151 53.8791 19.8554 54.583 18.3378 54.583H17.7593L17.7512 55.0298C20.3097 55.0747 22.9599 55.9296 25.6203 57.2211C33.9905 61.2834 41.8087 58.0964 46.5713 50.6247C46.8402 51.0695 47.5532 51.2471 48.3802 51.0899C49.083 50.9573 50.7656 49.9494 50.8003 49.6637C50.8084 49.5903 49.3499 48.9558 48.4169 48.9619C48.0788 48.9639 47.7488 49.0374 47.4432 49.1435C47.7488 48.5824 48.0401 48.0009 48.313 47.399C48.3212 47.5194 48.3334 47.6377 48.3925 47.7071Z" fill="#9B4522"/>
</svg>
