<svg width="84" height="93" viewBox="0 0 84 93" fill="none" xmlns="http://www.w3.org/2000/svg">
<rect width="83.8789" height="92.2921" rx="41.9394" fill="white"/>
<path d="M23.5848 68.735C23.9576 68.975 24.3305 69.215 24.7083 69.425C25.2088 69.71 25.7293 69.97 26.2648 70.215C26.3649 70.26 26.4675 70.305 26.5701 70.35C28.6421 71.26 30.9168 71.905 33.3991 72.205V69.29C32.9687 69.2425 32.5208 69.215 32.1029 69.15V40.065H34.8305C34.8605 40.065 34.8931 40.0675 34.9231 40.0675C36.402 40.0675 38.0261 40.1525 39.6926 40.3725C46.7894 41.3025 54.5844 44.69 54.5844 54.6675C54.5844 62.395 49.8674 68.3825 40.9539 69.3975V72.355C52.8152 71.37 60.6126 64.695 60.6126 55.07C60.6126 46.8 55.3076 40.215 44.4822 38.59C48.3159 37.1625 50.8884 33.23 50.8884 28.17C50.8884 22.0075 47.0647 17.7575 40.9539 16.0275V19.6375C43.4838 21.3 44.8601 24.11 44.8601 28.33C44.8601 33.8175 42.5003 36.85 39.5025 38.275C38.0311 38.975 36.4195 39.315 34.833 39.31C34.8255 39.31 34.818 39.3125 34.813 39.3125H32.1029V17.7425C32.1029 17.7425 33.309 17.755 33.3991 17.7575V15.1575L20.6945 15.1625L20.7045 15.96H21.7105C24.348 15.96 26.7503 17.9475 26.8679 20.9575V67.6025C24.9335 67.0575 23.2544 66.2475 21.6629 65.145C20.4267 64.29 19.173 63.23 18.0244 61.9925C18.8402 62.0475 19.3532 61.1675 19.3757 60.19C19.3982 59.2225 19.0304 57.5075 18.9528 57.5075C18.655 57.5075 17.076 59.0775 16.8508 59.795C16.7757 60.0375 16.7682 60.2725 16.7832 60.5C16.3303 59.89 15.9174 59.235 15.5446 58.5425C15.6372 58.6175 15.7222 58.705 15.8273 58.745C16.3528 58.9475 17.1536 58.3725 17.3213 57.44C17.4864 56.52 17.4063 54.7 17.3313 54.6875C17.0385 54.6425 15.4795 55.79 15.1517 56.4425C14.969 56.805 14.9515 57.1625 14.9965 57.5C14.5811 56.5525 14.2959 55.5075 14.0857 54.4125C14.1557 54.7175 14.2909 54.99 14.5036 55.1375C14.9115 55.425 15.7297 55.0625 16.0826 54.255C16.4279 53.4575 16.7657 51.7975 16.7032 51.7725C16.4604 51.675 14.8614 52.4025 14.4335 52.925C14.1307 53.295 14.0231 53.72 14.0356 54.105C13.8905 53.255 13.8229 52.3575 13.8329 51.415C13.918 51.5525 14.0356 51.6725 14.1908 51.76C14.6537 52.02 15.482 51.7125 15.7698 50.8775C16.1001 49.915 16.7632 49.0675 16.7007 49.0425C16.4579 48.945 14.5636 49.3075 14.1132 49.8125C13.9856 49.955 13.9055 50.1075 13.8329 50.26C13.8329 50.255 13.8329 50.2475 13.8329 50.2425C13.8805 49.645 13.9706 48.9625 14.1007 48.2375C14.1632 48.37 14.2508 48.495 14.3784 48.5975C14.7788 48.9125 15.5946 48.7725 15.975 48.0625C16.4129 47.2425 17.1486 46.585 17.0935 46.5525C16.8783 46.4225 15.0541 46.43 14.5661 46.8125C14.4886 46.8725 14.4485 46.945 14.386 47.0125C14.5161 46.465 14.6587 45.925 14.8439 45.3625C14.8739 45.5025 14.9415 45.6375 15.0466 45.755C15.3519 46.0975 16.1126 46.0875 16.573 45.4975C17.1061 44.815 17.8793 44.3225 17.8368 44.285C17.6666 44.135 16.0225 43.885 15.517 44.1625C15.3869 44.235 15.2893 44.3275 15.1942 44.42C15.4295 43.81 15.7022 43.23 16.01 42.6475C15.9625 42.8425 15.9675 43.0475 16.0851 43.235C16.3028 43.585 16.9734 43.6925 17.4714 43.2425C18.047 42.7225 18.8052 42.4075 18.7726 42.3675C18.645 42.21 17.2362 41.735 16.7482 41.9025C16.5505 41.97 16.3979 42.075 16.2703 42.195C16.4704 41.85 16.6356 41.48 16.8683 41.155C16.8708 41.15 16.8733 41.135 16.8783 41.1275C17.2487 41.2725 17.9894 40.96 18.2346 40.3075C18.4498 39.735 19.0629 38.515 19.0079 38.5075C18.7576 38.4725 17.614 39.0675 17.1761 39.475C16.6481 39.965 16.4679 40.4625 16.5956 40.825C15.7122 42.03 15.0091 43.2025 14.4635 44.4375C14.5586 44.05 14.5261 43.5875 14.3259 43.2025C14.0081 42.595 13.2399 41.6725 13.1798 41.6925C12.9421 41.775 12.6993 43.1675 12.7144 43.8375C12.7344 44.8525 13.2374 45.3525 13.8354 45.2125C14.1382 45.14 14.3509 44.845 14.451 44.475C14.0531 45.385 13.7378 46.34 13.5026 47.375C13.5452 46.945 13.4426 46.4575 13.1698 46.08C12.7344 45.4775 11.7559 44.6075 11.6934 44.64C11.4456 44.7675 11.3881 46.3075 11.5007 47.0275C11.6709 48.12 12.2965 48.575 12.9271 48.325C13.2374 48.2025 13.42 47.86 13.4801 47.4625C13.2599 48.4525 13.1072 49.52 13.0197 50.7075C12.9846 50.2525 12.7969 49.76 12.4541 49.4C11.8986 48.815 10.6724 48.08 10.6123 48.1225C10.3796 48.2875 10.6999 50.0025 10.8976 50.6075C11.2705 51.74 11.9912 52.15 12.5967 51.8075C12.8495 51.665 12.9596 51.355 12.9921 51.005C12.9296 52 12.9946 52.98 13.1573 53.9375C13.0096 53.6125 12.8195 53.31 12.5342 53.1325C11.6759 52.5975 10.0618 51.9875 10.0218 52.04C9.87164 52.255 10.5348 53.8875 10.8726 54.585C11.5457 55.9825 12.5817 55.945 13.1222 55.58C13.2999 55.46 13.36 55.19 13.3675 54.8875C13.5802 55.78 13.863 56.6425 14.2058 57.47C14.0857 57.355 13.9781 57.225 13.8304 57.145C12.8895 56.63 10.82 56.3975 10.785 56.465C10.6474 56.7275 11.9336 58.5925 12.5367 59.1575C13.4551 60.02 14.3309 60.04 14.8189 59.4925C14.9014 59.4 14.934 59.245 14.9415 59.075C15.3769 59.9225 15.8524 60.72 16.3378 61.4525C15.8924 61.195 15.3093 61.0525 14.7413 61.03C13.5952 60.985 11.7785 61.7075 11.7885 61.7975C11.821 62.1475 13.8454 63.445 14.7038 63.6375C16.01 63.9275 17.1261 63.54 17.1111 62.5825C17.1111 62.57 17.1011 62.5625 17.1011 62.55C18.8077 64.88 20.3942 66.3375 20.3942 66.3375C21.2926 67.12 22.1834 67.7825 23.0768 68.39C23.0718 68.395 23.0693 68.4 23.0643 68.405C23.2269 68.5325 23.4171 68.6225 23.5848 68.735Z" fill="#9B4522"/>
<path d="M31.8978 10.5475C33.8171 10.5475 35.3761 12.085 35.4111 13.9925V37.5925C36.1844 37.5225 38.1913 37.08 38.9745 36.64V19.4525H38.9695V14.3125H38.9745V13.9925C39.0121 12.085 40.5685 10.5475 42.4879 10.5475H43.1835L43.191 10H31.1946L31.2046 10.5475H31.8978Z" fill="#9B4522"/>
<path d="M15.0341 42.6249C15.6071 42.5899 16.015 41.6699 15.7798 40.9299C15.5946 40.3449 15.0566 39.4149 15.0015 39.4224C14.7813 39.4574 14.3509 40.6499 14.2608 41.2399C14.1182 42.1399 14.4861 42.6574 15.0341 42.6249Z" fill="#9B4522"/>
<path d="M69.1483 51.5775C69.6938 51.6275 70.0792 51.1225 69.9666 50.22C69.894 49.625 69.5012 48.4225 69.281 48.38C69.2259 48.37 68.6604 49.2825 68.4552 49.8625C68.1999 50.5925 68.5753 51.525 69.1483 51.5775Z" fill="#9B4522"/>
<path d="M68.833 68.4551C69.306 69.0176 70.1818 69.0251 71.1252 68.1926C71.7458 67.6451 73.0896 65.8226 72.9594 65.5551C72.9269 65.4876 70.8524 65.6551 69.894 66.1401C69.7414 66.2176 69.6263 66.3451 69.5011 66.4576C69.869 65.6426 70.1868 64.7951 70.427 63.9151C70.427 64.2101 70.4796 64.4726 70.6497 64.5976C71.1777 64.9801 72.2137 65.0501 72.9294 63.6726C73.2873 62.9851 74.0029 61.3751 73.8603 61.1551C73.8253 61.1001 72.1887 61.6576 71.3154 62.1676C70.9926 62.3551 70.7774 62.6951 70.6222 63.0576C70.8274 62.0726 70.955 61.0626 70.9225 60.0251C70.9425 60.3751 71.0426 60.6901 71.2929 60.8401C71.8884 61.2001 72.6191 60.8151 73.0295 59.6951C73.2472 59.0951 73.6201 57.3926 73.3949 57.2201C73.3373 57.1751 72.0886 57.8701 71.5131 58.4376C71.1602 58.7876 70.9575 59.2751 70.9075 59.7276C70.8574 58.5401 70.7373 57.4676 70.5496 56.4726C70.5997 56.8726 70.7698 57.2176 71.0751 57.3501C71.6982 57.6201 72.3363 57.1826 72.5415 56.0976C72.6767 55.3826 72.6667 53.8401 72.4239 53.7051C72.3614 53.6701 71.3579 54.5076 70.9025 55.0976C70.6197 55.4651 70.5021 55.9501 70.5296 56.3801C70.3269 55.3401 70.0417 54.3751 69.6713 53.4526C69.7614 53.8226 69.9641 54.1251 70.2619 54.2076C70.8524 54.3676 71.3729 53.8851 71.4255 52.8701C71.458 52.2026 71.2603 50.8026 71.0276 50.7126C70.9675 50.6901 70.1693 51.5876 69.834 52.1851C69.6213 52.5626 69.5762 53.0251 69.6563 53.4126C69.1508 52.1626 68.4827 50.9676 67.6394 49.7351C67.7795 49.3751 67.6118 48.8726 67.1013 48.3676C66.6759 47.9476 65.5524 47.3151 65.3021 47.3426C65.2446 47.3476 65.8201 48.5851 66.0178 49.1651C66.243 49.8276 66.9737 50.1601 67.3491 50.0276C67.3516 50.0326 67.3541 50.0501 67.3591 50.0551C67.5818 50.3851 67.7344 50.7601 67.9246 51.1126C67.802 50.9876 67.6519 50.8776 67.4567 50.8026C66.9737 50.6201 65.5524 51.0501 65.4172 51.2051C65.3847 51.2451 66.1304 51.5826 66.6884 52.1201C67.1714 52.5851 67.8471 52.5001 68.0748 52.1551C68.1974 51.9701 68.2099 51.7676 68.1674 51.5701C68.4576 52.1601 68.7129 52.7501 68.9281 53.3676C68.8355 53.2726 68.7429 53.1751 68.6153 53.1001C68.1198 52.8076 66.4682 53.0076 66.2931 53.1501C66.248 53.1876 67.0038 53.7026 67.5167 54.4026C67.9597 55.0076 68.7179 55.0426 69.0357 54.7076C69.1458 54.5926 69.2159 54.4601 69.2509 54.3201C69.4161 54.8901 69.5437 55.4326 69.6563 55.9851C69.5962 55.9176 69.5587 55.8426 69.4836 55.7801C69.0082 55.3826 67.1839 55.3151 66.9662 55.4401C66.9112 55.4726 67.6243 56.1526 68.0372 56.9851C68.3951 57.7051 69.2059 57.8726 69.6162 57.5701C69.7489 57.4726 69.839 57.3501 69.9065 57.2176C70.0141 57.9451 70.0817 58.6301 70.1117 59.2301C70.1117 59.2376 70.1117 59.2426 70.1117 59.2501C70.0442 59.0951 69.9691 58.9401 69.8465 58.7926C69.4136 58.2751 67.5293 57.8526 67.284 57.9426C67.2215 57.9651 67.8571 58.8326 68.1574 59.8051C68.4176 60.6476 69.2359 60.9801 69.7063 60.7351C69.879 60.6451 70.0066 60.5151 70.0992 60.3626C70.0767 61.5051 69.9441 62.5801 69.7038 63.5801L69.6713 63.5676C69.8665 63.0926 69.854 62.4451 69.4286 61.8901C69.0182 61.3551 67.4417 60.5776 67.1964 60.6676C67.1339 60.6901 67.4166 62.3601 67.7395 63.1676C68.0648 63.9851 68.873 64.3726 69.2884 64.0976C69.3785 64.0376 69.4436 63.9376 69.5137 63.8451C69.2484 64.4451 68.9631 65.0426 68.6603 65.6376C68.6353 65.5501 68.6403 65.4676 68.6003 65.3801C68.2925 64.7201 66.771 63.5226 66.4757 63.5576C66.4007 63.5676 66.263 65.3851 66.3982 66.3076C66.5108 67.0726 67.0513 67.5876 67.5368 67.6576C67.299 68.0551 67.0638 68.4526 66.8061 68.8401C66.7961 68.7851 66.8111 68.7326 66.7961 68.6751C66.5934 67.9501 65.0644 66.3326 64.7666 66.3226C64.6915 66.3201 64.2686 68.0226 64.2611 68.9901C64.2536 69.8951 64.6815 70.6951 65.3872 70.7926C60.5226 76.9926 52.9178 81.2701 41.617 78.4576C38.9669 77.7976 38.9845 76.8301 38.9795 75.3151V42.1426C38.549 42.0126 36.387 41.7501 35.4161 41.8651V74.0526C35.3685 76.0176 33.777 76.8801 31.9127 76.8801H31.202L31.192 77.4276C34.335 77.4826 37.5906 78.5301 40.8588 80.1126C51.1411 85.0901 60.7453 81.1851 66.5959 72.0301C66.9262 72.5751 67.802 72.7926 68.818 72.6001C69.6813 72.4376 71.7483 71.2026 71.7908 70.8526C71.8008 70.7626 70.0091 69.9851 68.863 69.9926C68.4476 69.9951 68.0422 70.0851 67.6669 70.2151C68.0422 69.5276 68.4001 68.8151 68.7354 68.0776C68.7454 68.2251 68.7604 68.3701 68.833 68.4551Z" fill="#9B4522"/>
</svg>
