<svg width="100" height="101" viewBox="0 0 100 101" fill="none" xmlns="http://www.w3.org/2000/svg">
<circle cx="50" cy="51" r="48.5" fill="#52736B"/>
<path d="M70.412 41.4658H59.0019C60.065 41.0089 61.0524 40.401 61.9315 39.6617C62.5412 39.1347 63.0323 38.4909 63.374 37.7707C63.7156 37.0505 63.9006 36.2694 63.9171 35.4764C63.9434 34.5977 63.7847 33.723 63.4509 32.906C63.117 32.089 62.6149 31.3469 61.9755 30.7252C61.3361 30.1036 60.5727 29.6155 59.7323 29.291C58.8919 28.9664 57.9922 28.8121 57.0882 28.8377C56.2726 28.8538 55.4691 29.0336 54.7283 29.3657C53.9875 29.6979 53.3252 30.1753 52.7831 30.768C51.4122 32.2721 50.5493 34.2317 49.9996 36.1101C49.4545 34.2317 48.5916 32.2766 47.2161 30.768C46.674 30.1753 46.0117 29.6979 45.2709 29.3657C44.53 29.0336 43.7266 28.8538 42.9109 28.8377C42.007 28.8121 41.1073 28.9664 40.2668 29.291C39.4264 29.6155 38.6631 30.1036 38.0237 30.7252C37.3842 31.3469 36.8822 32.089 36.5483 32.906C36.2144 33.723 36.0558 34.5977 36.0821 35.4764C36.0986 36.2694 36.2835 37.0505 36.6252 37.7707C36.9669 38.4909 37.458 39.1347 38.0676 39.6617C38.9468 40.401 39.9341 41.0089 40.9973 41.4658H29.5872C28.849 41.4658 28.141 41.7509 27.619 42.2583C27.097 42.7658 26.8037 43.4541 26.8037 44.1718V51.3878C26.8037 52.1055 27.097 52.7938 27.619 53.3013C28.141 53.8087 28.849 54.0938 29.5872 54.0938H30.5151V69.4279C30.5151 70.1456 30.8083 70.8339 31.3303 71.3414C31.8523 71.8488 32.5603 72.1339 33.2986 72.1339H66.7006C67.4389 72.1339 68.1468 71.8488 68.6689 71.3414C69.1909 70.8339 69.4841 70.1456 69.4841 69.4279V54.0938H70.412C71.1502 54.0938 71.8582 53.8087 72.3802 53.3013C72.9022 52.7938 73.1955 52.1055 73.1955 51.3878V44.1718C73.1955 43.4541 72.9022 42.7658 72.3802 42.2583C71.8582 41.7509 71.1502 41.4658 70.412 41.4658ZM54.1748 31.9631C54.5495 31.556 55.0066 31.2285 55.5175 31.0011C56.0284 30.7737 56.5821 30.6513 57.1439 30.6417H57.2854C57.9244 30.6424 58.5568 30.7675 59.1453 31.0097C59.7337 31.2519 60.2662 31.6063 60.7114 32.0519C61.1566 32.4976 61.5055 33.0254 61.7373 33.6043C61.9692 34.1832 62.0794 34.8014 62.0614 35.4223C62.0514 35.9685 61.9255 36.5067 61.6916 37.0034C61.4577 37.5001 61.1209 37.9445 60.7022 38.3087C57.8978 40.7216 53.0313 41.2876 50.9599 41.4184C51.1037 39.4205 51.6836 34.7007 54.1748 31.9631ZM37.9377 35.4223C37.9198 34.8014 38.03 34.1832 38.2618 33.6043C38.4937 33.0254 38.8425 32.4976 39.2877 32.0519C39.7329 31.6063 40.2655 31.2519 40.8539 31.0097C41.4424 30.7675 42.0748 30.6424 42.7138 30.6417H42.8553C43.4171 30.6513 43.9708 30.7737 44.4817 31.0011C44.9926 31.2285 45.4497 31.556 45.8243 31.9631C48.3086 34.6894 48.8885 39.4205 49.023 41.4342C46.9609 41.3034 42.0944 40.7374 39.2808 38.3245C38.863 37.957 38.5281 37.5095 38.2969 37.01C38.0658 36.5106 37.9435 35.97 37.9377 35.4223ZM28.6594 51.3878V44.1718C28.6594 43.9325 28.7571 43.7031 28.9311 43.534C29.1051 43.3648 29.3411 43.2698 29.5872 43.2698H49.0718V52.2898H29.5872C29.3411 52.2898 29.1051 52.1948 28.9311 52.0256C28.7571 51.8565 28.6594 51.627 28.6594 51.3878ZM32.3707 69.4279V54.0938H49.0718V70.3299H33.2986C33.0525 70.3299 32.8165 70.2349 32.6425 70.0657C32.4685 69.8966 32.3707 69.6671 32.3707 69.4279ZM67.6285 69.4279C67.6285 69.6671 67.5307 69.8966 67.3567 70.0657C67.1827 70.2349 66.9467 70.3299 66.7006 70.3299H50.9274V54.0938H67.6285V69.4279ZM71.3398 51.3878C71.3398 51.627 71.242 51.8565 71.068 52.0256C70.894 52.1948 70.658 52.2898 70.412 52.2898H50.9274V43.2698H70.412C70.658 43.2698 70.894 43.3648 71.068 43.534C71.242 43.7031 71.3398 43.9325 71.3398 44.1718V51.3878Z" fill="white"/>
</svg>
