<svg width="60" height="61" viewBox="0 0 60 61" fill="none" xmlns="http://www.w3.org/2000/svg">
<g id="Group 3">
<circle id="Ellipse 1" cx="30" cy="30.5" r="28" fill="#F5F5F5" stroke="#52736B" stroke-width="4"/>
<path id="Vector" d="M42.6255 24.6024H35.5678C36.2254 24.3198 36.8361 23.9438 37.3799 23.4865C37.757 23.1605 38.0608 22.7623 38.2721 22.3168C38.4835 21.8713 38.5979 21.3882 38.6081 20.8977C38.6244 20.3541 38.5262 19.8131 38.3197 19.3077C38.1132 18.8023 37.8026 18.3433 37.4071 17.9588C37.0116 17.5743 36.5394 17.2724 36.0196 17.0716C35.4997 16.8708 34.9432 16.7754 34.3841 16.7912C33.8795 16.8012 33.3826 16.9124 32.9243 17.1179C32.4661 17.3233 32.0564 17.6186 31.7211 17.9852C30.8731 18.9156 30.3394 20.1277 29.9993 21.2896C29.6622 20.1277 29.1284 18.9184 28.2776 17.9852C27.9422 17.6186 27.5326 17.3233 27.0744 17.1179C26.6161 16.9124 26.1191 16.8012 25.6146 16.7912C25.0555 16.7754 24.4989 16.8708 23.9791 17.0716C23.4592 17.2724 22.9871 17.5743 22.5916 17.9588C22.196 18.3433 21.8855 18.8023 21.679 19.3077C21.4724 19.8131 21.3743 20.3541 21.3906 20.8977C21.4008 21.3882 21.5152 21.8713 21.7265 22.3168C21.9379 22.7623 22.2416 23.1605 22.6187 23.4865C23.1625 23.9438 23.7733 24.3198 24.4309 24.6024H17.3731C16.9165 24.6024 16.4785 24.7788 16.1557 25.0927C15.8328 25.4066 15.6514 25.8323 15.6514 26.2762V30.7398C15.6514 31.1837 15.8328 31.6094 16.1557 31.9233C16.4785 32.2372 16.9165 32.4136 17.3731 32.4136H17.947V41.8986C17.947 42.3425 18.1284 42.7683 18.4513 43.0822C18.7742 43.3961 19.2122 43.5724 19.6688 43.5724H40.3299C40.7865 43.5724 41.2244 43.3961 41.5473 43.0822C41.8702 42.7683 42.0516 42.3425 42.0516 41.8986V32.4136H42.6255C43.0822 32.4136 43.5201 32.2372 43.843 31.9233C44.1659 31.6094 44.3473 31.1837 44.3473 30.7398V26.2762C44.3473 25.8323 44.1659 25.4066 43.843 25.0927C43.5201 24.7788 43.0822 24.6024 42.6255 24.6024ZM32.582 18.7245C32.8137 18.4727 33.0964 18.2701 33.4125 18.1294C33.7285 17.9888 34.071 17.9131 34.4185 17.9071H34.506C34.9013 17.9075 35.2925 17.9849 35.6564 18.1348C36.0204 18.2846 36.3498 18.5038 36.6252 18.7794C36.9006 19.0551 37.1164 19.3816 37.2598 19.7397C37.4032 20.0977 37.4714 20.4801 37.4603 20.8642C37.4541 21.202 37.3762 21.535 37.2315 21.8422C37.0868 22.1494 36.8785 22.4243 36.6195 22.6496C34.8848 24.1421 31.8746 24.4922 30.5933 24.5731C30.6823 23.3373 31.041 20.4179 32.582 18.7245ZM22.5384 20.8642C22.5273 20.4801 22.5954 20.0977 22.7389 19.7397C22.8823 19.3816 23.0981 19.0551 23.3734 18.7794C23.6488 18.5038 23.9782 18.2846 24.3422 18.1348C24.7062 17.9849 25.0974 17.9075 25.4926 17.9071H25.5802C25.9277 17.9131 26.2702 17.9888 26.5862 18.1294C26.9022 18.2701 27.185 18.4727 27.4167 18.7245C28.9534 20.4109 29.3121 23.3373 29.3953 24.5829C28.1197 24.502 25.1095 24.1519 23.3691 22.6594C23.1107 22.4321 22.9035 22.1552 22.7606 21.8463C22.6176 21.5373 22.542 21.203 22.5384 20.8642ZM16.7992 30.7398V26.2762C16.7992 26.1283 16.8597 25.9864 16.9673 25.8817C17.0749 25.7771 17.2209 25.7183 17.3731 25.7183H29.4254V31.2977H17.3731C17.2209 31.2977 17.0749 31.2389 16.9673 31.1343C16.8597 31.0297 16.7992 30.8877 16.7992 30.7398ZM19.0949 41.8986V32.4136H29.4254V42.4565H19.6688C19.5166 42.4565 19.3706 42.3978 19.263 42.2931C19.1553 42.1885 19.0949 42.0466 19.0949 41.8986ZM40.9038 41.8986C40.9038 42.0466 40.8433 42.1885 40.7357 42.2931C40.6281 42.3978 40.4821 42.4565 40.3299 42.4565H30.5732V32.4136H40.9038V41.8986ZM43.1995 30.7398C43.1995 30.8877 43.139 31.0297 43.0314 31.1343C42.9237 31.2389 42.7778 31.2977 42.6255 31.2977H30.5732V25.7183H42.6255C42.7778 25.7183 42.9237 25.7771 43.0314 25.8817C43.139 25.9864 43.1995 26.1283 43.1995 26.2762V30.7398Z" fill="#52736B"/>
</g>
</svg>
