<svg width="100" height="101" viewBox="0 0 100 101" fill="none" xmlns="http://www.w3.org/2000/svg">
<circle cx="50" cy="50.5" r="46.5" fill="#F5F5F5" stroke="#52736B" stroke-width="4"/>
<path d="M70.412 40.9658H59.0019C60.065 40.5089 61.0524 39.901 61.9315 39.1617C62.5412 38.6347 63.0323 37.9909 63.374 37.2707C63.7156 36.5505 63.9006 35.7694 63.9171 34.9764C63.9434 34.0977 63.7847 33.223 63.4509 32.406C63.117 31.589 62.6149 30.8469 61.9755 30.2252C61.3361 29.6036 60.5727 29.1155 59.7323 28.791C58.8919 28.4664 57.9922 28.3121 57.0882 28.3377C56.2726 28.3538 55.4691 28.5336 54.7283 28.8657C53.9875 29.1979 53.3252 29.6753 52.7831 30.268C51.4122 31.7721 50.5493 33.7317 49.9996 35.6101C49.4545 33.7317 48.5916 31.7766 47.2161 30.268C46.674 29.6753 46.0117 29.1979 45.2709 28.8657C44.53 28.5336 43.7266 28.3538 42.9109 28.3377C42.007 28.3121 41.1073 28.4664 40.2668 28.791C39.4264 29.1155 38.6631 29.6036 38.0237 30.2252C37.3842 30.8469 36.8822 31.589 36.5483 32.406C36.2144 33.223 36.0558 34.0977 36.0821 34.9764C36.0986 35.7694 36.2835 36.5505 36.6252 37.2707C36.9669 37.9909 37.458 38.6347 38.0676 39.1617C38.9468 39.901 39.9341 40.5089 40.9973 40.9658H29.5872C28.849 40.9658 28.141 41.2509 27.619 41.7583C27.097 42.2658 26.8037 42.9541 26.8037 43.6718V50.8878C26.8037 51.6055 27.097 52.2938 27.619 52.8013C28.141 53.3087 28.849 53.5938 29.5872 53.5938H30.5151V68.9279C30.5151 69.6456 30.8083 70.3339 31.3303 70.8414C31.8523 71.3488 32.5603 71.6339 33.2986 71.6339H66.7006C67.4389 71.6339 68.1468 71.3488 68.6689 70.8414C69.1909 70.3339 69.4841 69.6456 69.4841 68.9279V53.5938H70.412C71.1502 53.5938 71.8582 53.3087 72.3802 52.8013C72.9022 52.2938 73.1955 51.6055 73.1955 50.8878V43.6718C73.1955 42.9541 72.9022 42.2658 72.3802 41.7583C71.8582 41.2509 71.1502 40.9658 70.412 40.9658ZM54.1748 31.4631C54.5495 31.056 55.0066 30.7285 55.5175 30.5011C56.0284 30.2737 56.5821 30.1513 57.1439 30.1417H57.2854C57.9244 30.1424 58.5568 30.2675 59.1453 30.5097C59.7337 30.7519 60.2662 31.1063 60.7114 31.5519C61.1566 31.9976 61.5055 32.5254 61.7373 33.1043C61.9692 33.6832 62.0794 34.3014 62.0614 34.9223C62.0514 35.4685 61.9255 36.0067 61.6916 36.5034C61.4577 37.0001 61.1209 37.4445 60.7022 37.8087C57.8978 40.2216 53.0313 40.7876 50.9599 40.9184C51.1037 38.9205 51.6836 34.2007 54.1748 31.4631ZM37.9377 34.9223C37.9198 34.3014 38.03 33.6832 38.2618 33.1043C38.4937 32.5254 38.8425 31.9976 39.2877 31.5519C39.7329 31.1063 40.2655 30.7519 40.8539 30.5097C41.4424 30.2675 42.0748 30.1424 42.7138 30.1417H42.8553C43.4171 30.1513 43.9708 30.2737 44.4817 30.5011C44.9926 30.7285 45.4497 31.056 45.8243 31.4631C48.3086 34.1894 48.8885 38.9205 49.023 40.9342C46.9609 40.8034 42.0944 40.2374 39.2808 37.8245C38.863 37.457 38.5281 37.0095 38.2969 36.51C38.0658 36.0106 37.9435 35.47 37.9377 34.9223ZM28.6594 50.8878V43.6718C28.6594 43.4325 28.7571 43.2031 28.9311 43.034C29.1051 42.8648 29.3411 42.7698 29.5872 42.7698H49.0718V51.7898H29.5872C29.3411 51.7898 29.1051 51.6948 28.9311 51.5256C28.7571 51.3565 28.6594 51.127 28.6594 50.8878ZM32.3707 68.9279V53.5938H49.0718V69.8299H33.2986C33.0525 69.8299 32.8165 69.7349 32.6425 69.5657C32.4685 69.3966 32.3707 69.1671 32.3707 68.9279ZM67.6285 68.9279C67.6285 69.1671 67.5307 69.3966 67.3567 69.5657C67.1827 69.7349 66.9467 69.8299 66.7006 69.8299H50.9274V53.5938H67.6285V68.9279ZM71.3398 50.8878C71.3398 51.127 71.242 51.3565 71.068 51.5256C70.894 51.6948 70.658 51.7898 70.412 51.7898H50.9274V42.7698H70.412C70.658 42.7698 70.894 42.8648 71.068 43.034C71.242 43.2031 71.3398 43.4325 71.3398 43.6718V50.8878Z" fill="#52736B"/>
</svg>
